<?xml version="1.0" encoding="UTF-8"?>
<svg xmlns="http://www.w3.org/2000/svg" version="1.1" viewBox="0 0 2302.9 2715.9">
  <defs>
    <style>
      .cls-1 {
        fill: #f3950b;
      }
    </style>
  </defs>
  <!-- Generator: Adobe Illustrator 28.6.0, SVG Export Plug-In . SVG Version: 1.2.0 Build 709)  -->
  <g>
    <g id="Livello_1">
      <g>
        <path class="cls-1" d="M1690.1,2327.6c-5.1,1.3-9.6,1.8-14.5,3.9-6.1,2.4-11.4,7-16.3,11.4-4.8,4.5-11.2,7.9-17.4,7.6-6.9,0-14.2-3.6-20.7-6.5-7.7-3-15.2-5.1-23.2-4.2-29.3,3.5-27.7,12.5-49.5,25.2-5.4,3-11.6,5-17.8,6.7-8,2.7-15.4,4.1-23.5,5.4-10,2-20.8,4.8-31.2,4.3-7.4-.4-14.2-1.1-21.5-1.9-5.8-.7-11.4-2.3-17.1-3.1-7.9-1.6-15.2-2.4-22.6,1.8-8.4,4.2-17,9.5-26.4,10.9-10.2.9-20.6-1.7-29.8-5.9-8.3-3.7-14.5-8-18.7-16-2.4-3.7-3.6-6.6-7-8.5-5.4-2.5-12.6-.5-18.4-2.5-11.4-3.5-12.2-20.4-22.2-24-3.5-1.1-7.6-.2-11.3.8-5.4,1.6-10.8,3.3-16.4,4.4-18,3.2-16,5.8-21.8,21.1-5.9,14.4-27.4,20.5-40,10.8-7-5.3-12.4-15.3-17.2-21.3-5.3-6.1-11.5,3.3-15,7.2-1.6,1.9-3.5,3.5-5.5,4.9-4.6,3.1-9.5,5-14.2,8-11.7,6.5-15.4,12.3-21.2,24.3-7.1,12.8-7.8,19.5-7.7,33.5.6,6.7.2,12.1,1.5,18.9.7,3,2.1,6.3,3.5,9.2,4.1,9.2,11.1,13.3,19,18.9,5.1,3.6,9.2,8.4,13.6,12.8,8.9,9.3,21.6,4.3,32.9,3.5,11-.6,22.7-.7,31.1,5.9,4.7,3.5,8.7,7.6,14,10.3,8.3,4.6,18.4,3.9,26.5,9,6.8,4.3,11.3,11.1,16.5,16.9,5.1,6,11.4,9.5,17.8,13.7,5.6,3.9,10.7,8.2,16.9,11.2,9,4.9,19.6,5.9,28.2,11.7,9.8,6.9,17.5,16.6,27.3,23.3,5.6,3.6,12.3,5.5,18.1,8.5,7.2,3.2,14.2,7.4,21.8,9.8,8.2,2.1,16.5.1,25.3,0,12.8-.7,25.9,2.8,36.6,9.3,10.4,6,19.4,14,27.4,23,6.3,6.7,11.1,14.5,14.1,23,8.6,22.4,12,21.1,33.2,29.2,4.7,2,9.3,4.1,13.8,6.4,4.3,2.1,8.3,4.2,13,4.9,5.9,1,12-.4,18-.9,5.6-.6,11.6.1,16.8,1.1,8,1.4,15.4,4.1,22.5,7.2,4.6,1.4,11,4,14.9,2,4.5-3,3.5-10.5,2.5-15.8-1.2-5.3-2.7-10.9-2.4-16.3.4-10.9,11.8-26,18.8-34.4,10.3-11.7,23.2-25.8,12.1-41.2-10-13.4-13.4-15.3-11.8-32.9.2-4.1-1.6-8-4.8-10.7-9.7-7.8-16.3-9.6-16.9-24.2-2.3-40.3,11.8-30.8,18.8-66.6,5.2-26.4,4.5-30,22.6-52.1,3.7-4.9,6.8-10,9.3-14.9,3.5-7.5,6.9-14.9,11.8-21.8,5.9-8.7,13.9-20.4,19.6-28.8,3.1-4.6,5.9-9.3,8.1-14.3,2.3-5.2,4.7-10.3,5-15.9.5-6.8-1-16-9.9-14.9-8.8.7-16.4,6.9-24.8,11.4-4.4,2.4-9.2,4.5-14,5.7h-.2Z"/>
        <path class="cls-1" d="M606.7,1722.8c-.8-6-1.2-12.2-3.6-17.9-2-5.3-5.3-10.3-6.7-15.8-3.5-19-5-25.3-23.5-34.4-11.4-7.4,5.2-12.9-5.1-29.3-3-6.7-1.3-14.3-2.4-21.3-2.7-13.3-14.5,0-28-17.1-6.4-6.7-17.5-6.4-24-12.6-3.1-2.7-6.3-6.6-10.8-5.7-11.5,4.4-13.3,20.8-25.9,24.8-27.2,8.2-38.2,36.6-58.7,53.1-10.1,6-21.7,8.3-31.1,16-10.2,8.6-22.3,16.4-36.2,12.6-41.5-4.1-43.2-31-59.7,14.2-3.2,9.8,3.5,18.3,5.4,27.6,3.5,20.5.7,18.1,20.4,24.6,7.8,4.3,10.2,15.1,14.5,23.1,5.6,9,5.2,19.9,7.6,29.7,2.2,8.4,8.8,12.9,11.2,21.7,1.7,6.3.3,12.8,0,19.2-.6,8.4,1.8,16.6,2.4,24.8,0,17-18.2,22.4-14.8,43.5,2.6,26,30.8-4,30.9,32.5-.8,25-21.3,10.8-20,31.8.3,7.1,1.4,13.8,1.4,20.9,1,9.8-3.7,18.7-7.5,27.3-1.8,5.2-2.8,10.5-4.1,15.8-1.3,5.5-1.6,11.2-1.3,17,.1,7.4,3.8,15.2,2.7,22.7-.8,5.7-3.8,10-3.8,15.3,1.6,17.5,20.2,30.5,29.9,43,3.8,5.9,7,12.8,9.9,19.3,2.3,5.9,4.4,13.4,9.2,17.2,5.7,3.7,13.2-2.3,20.3-1.1,8.6.4,16.2,7.9,24.9,4.4,8.6-4.2,29-21.7,30.8-30.5,2.3-10.3-1.5-21.1,2.2-31.3,5.2-19.6,23.2-13.7,38-18.4,15.6-3,26.8,11.2,39.8,16.9,16,9.1,28.3,5.8,30.1-14.1,2.2-11.9,6.2-22.2,7.2-34.3.4-11.4,4.9-22,6.6-33.3,2.4-16.2,2.1-32.1,3.3-48.5,3-24.2,5.7-48.4,7.1-72.8,2.4-27.5,9.7-28.7-7.7-53.8-6.3-12.4-5.6-27,1.5-39,3.2-5.9,8.1-10.9,12.3-15.4,9.9-10.3,19.6-24.9,18.1-40-2.1-11.4-12.6-20.4-13.2-32.6v-.2Z"/>
        <path class="cls-1" d="M2301.9,1859.4c-5.9-25.9-22.6-49.2-41.9-67.2-10.1-9.7-21.8-15.7-31.8-25-11.4-10.5-15.9-27.4-29.5-35.3-10.4-5.4-23.1-9.5-33.6-15.6-14.1-9.4-29.4-15.4-44.8-21.9-20.1-9.3-34.9-25.8-51.5-39.8-18.8-15.7-40.3-27.9-62.9-36.4-17.8-6.9-35.3-13.7-53.3-20.5-21.3-8.7-41.4-20.1-62.7-28.8-20.9-8.3-41.5-19.2-61-30.7-9.4-5.5-20-11.8-24.9-21.7-17.5-32.9,11.6-43.6,33.3-60.4,18.4-12.3,21.1-32.7,3.8-47.9-17.3-17.3-42.5-6.1-63.4-3.5-19.6,2.2-37,.5-56,3.4-10.4.7-22.5-.6-33.9-1.2-14-1.4-27-.4-40.1-4.3-12.8-4.6-22.6-14.7-35.1-21.4-8.1-4.6-17.2-8.4-25.4-12.7-15.1-6.6-17.6-19.3-28.2-29.2-7.2-6.6-16.7-9.6-24.2-15.9-9.8-7.8-16.6-18.7-25.8-27.6-7.4-7.6-15.8-13.3-23.7-20.3-13.3-12.6-31.4-31.4-43.8-45.9-4.2-5.3-7.3-12.9-10-20.9-4.1-11.6-9.7-28-13.9-40.3-5.6-16.9-11.8-32.3-16.6-49.7-5.6-24.7-13.6-48.1-22.4-71.9-5.9-15.1-13.6-30.1-19.2-45-3.8-11-5.3-21.1-12-30.2-11.7-15.3-33.2-15.7-48.8-25.2-21.3-12.2-40.3-34.2-59.5-50.5-11.2-10.1-18.8-18.5-32.1-24.1-12-4.8-26.3-9.8-36.6-18.8-22.3-18-42.2-39.9-57.5-64.1-8.2-14.9-7.7-32.7-12.8-49.2-5.9-16.6-8.7-33.7-9.5-51.3-1.3-12.6-5-25-3-37.8,1.4-9.1,4.7-20.5,15.1-19.5,5.2.6,12.5,3.3,18.2,0,9.5-6.2,14.4-19.1,16.8-29.7,3.1-24.9-26.4-23.5-34-53.9-8.9-24.6-9.9-54.4,6.8-75.8,8.5-10.4,25.1-16.3,38.4-21.3,14.5-5.6,26.7-10.4,39.3-18.7,11.4-6.7,23.8-16.5,36.9-20.7,9.6-3.9,26.5-1.9,27.7-15.3.7-7.3-.6-18.4,7.9-22.1,10.3-4.3,23-.6,32.6,4.4,11.5,6.8,26,17,37.6,5.4,5.8-4.7,9.2-13.5,17.7-12,15.4,5.1,25.9,20.8,33.7,34.2,2.9,5.2,5.4,9.8,9.1,11.3,7.4,3.1,12.8-5.5,11-12.5-2.9-13.6-14.5-23.9-25.2-32.1-23.4-13.5-31.5-16.8-23.4-45.2,1.3-6.7.3-11.3-6-13.9-33.1-10.9-8.4-29.3,6-44.4,2.2-2.7,4.4-6.1,3.9-9.1-.3-4.5-8-8.5-13.5-10.3-11.5-3.6-27.7-6.3-30.7-20-2.2-12.8,6.7-22.9,16.6-30.8,10.2-10.8,29.2-12.8,36-26.2,6.7-15.7-15.2-21.8-27.2-23-11.1-1.9-21.3-3.9-32.1-3.5-11.6,0-23.8.9-35.2-2-15.6-4.3-31.3-8.6-47.5-8.3-15.8-.8-29-8-44-12.5-13.7-3.4-28.1-3-41.6-7-12.2-3.4-23-13.6-30.7-23.7-7-8.9-9.7-19.3-15.7-28.4-6.8-10.1-20.7-15.6-23.1-28.9-.6-2.8-.8-5.5-.5-8.3.7-8.5,7.8-13.9,10.8-21.3,3.6-15.9-47.6,6-52,7.5-29.8,13.9-27.1,16.8-60.2,11.8-11.1-1.8-22.1-.9-33,1.3-7.6.7-15.4,1-23.2,2-36,1-49.9,18.6-61.5,50.6-5.7,11.7-18.2,7.9-29.3,6.8-9.5-1.7-19.4-3-25.6-9.3-5.2-5.3-9.8-11.9-17.8-12.7-13.7-1.2-30.9,1.8-38.6,14.8-2.9,4.5-5.2,10.5-7.1,16.6-3.3,10.3-5.6,20.1.8,28.8,3.7,5.7,9.7,14,5.1,20.7-4,6.1-12.6,7.6-19.4,5.6-10.8-2.3-15.9-14.3-26-17.4-17.8-4.1-30.3,22.9-29.1,38.1.9,13.8,16,15.2,13.6,31.2-1.2,10.2,2.7,20.7,1.2,30.5-1.3,4.9-5.7,5.5-10.1,4.1-10.4-3-14.4-15.8-21.4-23.1-12.3-15.9-35.3-6.4-49.2,1.9-6.9,4.1-14.1,8.6-22.7,7.2-12.6-2.8-22.8-13.9-25.9-26.3-2.9-9.8-1.8-22.6-10-28.9-7.7-4.4-19.2-3-26,2.6-9.2,11-2.9,28.5-4,41.9-.5,19-11.8,34.8-24.3,48.2-10,13-29.3,36.7-26.1,53.6,2.2,9,8,18.6,5.9,28-1.8,5.7-9.9,9.9-15.4,6.4-7.7-4.7-11-19.9-16.6-27.6-20.8-24.5,2.5-38.4-34.4-44.4-13.5-1.9-22.5-12.7-30.6-22.8-7.8-10-19.6-20.5-19.5-33.4-.7-15.5,7.3-32-5.7-40.1-16.2-3.2-22.6,17.3-31.3,27.4-7.5,9.6-24.7,14.4-26.3,27.8-.3,3.2.6,6.9,1.5,10.9,5.5,17.1-6.5,25.8-15.9,37.7-7,10.5-16.1,19.1-25.9,27-8.4,7.1-18.2,16-30,11.6-7.7-2.4-15.1-6.6-22.6-9.4-14-6.3-27.8,3.1-39.7,10.1-6.6,3.5-14.1,5.7-21.2,7.4-8,2.1-16,4.4-23.7,7.2-4.8,1.6-9.7,4.2-14.6,3.4-5.8-1-10.5-6.4-15.9-8.2-6.3-1.9-12.8,6.1-17.7,9.7-13.3,9.3-32.2,14.8-25.9,35.5,1.1,3.8,2.7,7.5,5.2,10.7,7.7,9.6,20.9,11.8,25.2,23.7,3.6,9.2,3.3,20.6,7.9,29.5,16,27.1,33.2,16.1,18.8,58.5-3.1,14.3-14.2,19.9-25.8,26.5-9.8,5.8-18.7,13.5-30.2,15.9-14.5,2.6-37.8,1.5-32.2,22,1.9,5.2,6.1,9.2,8.9,14,3.7,5.7,5.9,11.2,8.6,18,12.7,36.7,39.6,13.9,51.1,47.3,12.6,30.3-4.9,16-20.2,54-3,6.1-5.2,12.1-4.6,18.1.5,6.7,3.5,12.8,4.6,19.3,1.1,18.4-.5,22.1,9.4,39.5,6.4,11.9,15.6,21,28.9,23.7,9.5,2.7,17.4,8.7,26.3,13.1,17.7,11,36.8,10.7,55.7,3.3,23.4-10.3,30.7,1.9,28.7,23.7-.7,11.2-10.1,19-16.7,27.4-6.7,7.2-15.5,14.9-16.7,24.8-2.6,10.6,6.1,19.8,16.4,21.1,8.2,1.2,16.2-1.6,24.1-3.3,16.2-4.4,33-7.2,47.8-15.2,12.7-7.6,26.7-14.2,34.8-27.1,10.6-12.5,12.9-29.9,21.9-43.4,9.4-13,29-16.6,35.2-32.2,5-14,12.9-24.4,26.1-31.7,14.5-9.1,30.3-20.6,48.3-17.9,12.4,1.6,28.3,6,41.2,10.2,11.7,3.3,18.3,11,28.9,14.6,10.4,2,22.7-.1,32.3,6.7,15.8,8.9,29.2,20.8,43.2,32.1,9.3,7.1,18.9,12.1,28.7,18.7,4.6,3,9.6,6.6,14.5,8.8,7.6,3.3,13.1,1.2,21.3,3.9,7.4,2.4,14.7,6,22.1,8.6,17.1,5.7,30.7,20.6,39.3,36,9.4,21.3,12.6,45.5,13.5,68.5,1.1,14.3,3,31.3,10.8,43.9,13.2,17.9,24.2,37.1,32.1,57.7,4.9,15.3,5,33,4.6,49.1.3,10.8-14.5,39.5,4.4,37.6,8-.8,14.9-3.3,23.3-.6,8.1,2.1,15.7,7.9,17.5,16.3,1.5,5.4,1.1,11.9,2.1,17.2,2.4,15.2,26.3,12.9,38.9,28.5,7.8,7.2,13.6,16.2,19.8,24.7,5.2,6.5,11.2,12.8,14.8,20.2,4.6,8.4,5,16.9-1.5,23.6-2.3,2.6-5.1,5.1-5.9,8.2-1.3,5.5,5.6,9.7,10.9,8.9,15.5-2.9,26.2-8.4,42.7-2.2,14.7,5.1,29.3,13,41.3,23.3,14,12.7,22.8,27.1,31.4,44.1,3.1,6.4,6.5,13.5,11,18.7,6.8,8.7,17.2,10.2,26.3,15.4,18,11,36.7,24.6,45.6,44.5,9.8,26.3,16.3,25.8,36.8,41.2,12.6,12.6,24.3,27.6,35.5,41.3,6.9,10.3,15.1,17.3,27,21.4,18.8,5.9,40.5,9.6,53.2,26.4,4.9,6.1,9.6,15.4,14.1,19.9,14.4,13.3,27.6-15.2,59.2-5.8,10.6,2.6,19.8,9.5,30.3,12.1,7.5,1.7,13.5-1.7,21.5-2.9,9.1-1.3,18.8.1,26.3,5.5,28.3,21.5,37.1,59.4,57.2,87.1,6.1,8.6,14.7,16.9,26,16.1,10.3.1,21.2-1.7,30.4,4.2,10.8,7.7,30.2,20.1,18.8,33.6-6.2,7-26.9,24.4-2.7,18.8,13.7-4.3,27.8-6.7,41.8-9.1,11.3-3.5,23.2-8.9,34.2-1.2,17.2,12.1,25.8,33.7,32.2,53.5,2,8.4,1.5,14.9-.5,21.5-2,6.8-7.8,13.5-7.3,20.5,1,9.4,11.5,15.7,20.3,19.2,11.2,5.8,23.2,9.8,33.3,17.3,12.1,8.8,24.1,27.4,38.4,28,8.5-.7,15.2-7.6,22.8-10.8,20.7-10.9,36.5,12.5,44.8,28.5,7.1,15.2,8.7,30.2,10.6,46.7,2.8,13.3,6,26.7,11.7,39.1,5.2,11.1,13.7,22.9,21,33.1,13.7,21.7,15.6,49.3,18.3,74.2,1.4,15.6,5.3,30.7,13.8,43.8,7.7,11.5,17.1,23.1,15.2,37.9-1.5,9.5-4.9,19.6-12.7,24.7-10.9,7.4-24.1,4.5-36.2,10.1-9.8,4.1-23.2,12.1-18.5,23.4,3.3,7.8,9,15.4,8.1,24.4-.5,8.4-4.6,15.5-8,24.3-4,9.5-6.5,19.8-13.7,27.5-9.8,11.4-28.4,15.7-30.2,32-2.3,25.4.8,63.3,36.9,62.6,8.8-.1,18.2-.8,27-1.2,8-.3,16-1.9,22-7.8,16.8-16,12.5-43.4,33.5-64.8,16.8-20.9,43-29.6,59.6-50.4,5-6,4.3-15.9,3.4-24-1-21.6-10-46.1,4.1-64.5,13.8-18.3,35.2-30.5,57.3-36.2,16.9-4.1,35.8,6.6,49.1-7,16.3-14.5-5.5-30.8-3-47.9.9-14,0-28.3-.5-42.2,1.1-14.2-.9-26.4-12.8-35.9-11.4-9.3-24.9-15.2-36-24.8-6.5-5.4-12.2-11.2-19.9-14.3-8.7-3.7-18.3-3.2-27.4-5.3-17.8-3.7-27.4-24.6-25.4-41.5,1.9-13.6,15.7-25.9,19.6-39,3.9-10.9,1.5-22.9,5.7-33.8,3-8.5,8.8-16.2,13.2-24,5.3-9.4,9.4-18.8,15.7-28.1,12-17.2,23.7-36.1,40.4-49,12.5-9.1,30.3-9,41,2.2,3.8,4.2,5.2,10,7.9,14.5,6.4,10,23.6,16.2,33.9,22.5,7.4,4,13.7,6.8,21.2,8.2,10.1,1.8,19.1,0,29.9.6,11.7.6,24.9,1.1,34.7,7.4,7.7,5.7,11.3,14.5,16.1,22.6,3.9,8.6,8.5,17.4,10.7,26.5,1.7,8,.8,16.3,5.2,23.6,7.7,13.2,20,24.4,33.6,32,9.5,4.9,18.3,9.4,28.7,7.9,8.8-3.5,8.9-12.8,11.2-22.1,1-5.3,2.2-10.9,4.1-15.7,5.9-15.6,18.3-29.6,13.7-47.3v-.2Z"/>
      </g>
    </g>
  </g>
</svg>