<?xml version="1.0" encoding="UTF-8"?>
<svg xmlns="http://www.w3.org/2000/svg" version="1.1" viewBox="0 0 408.3 744">
  <defs>
    <style>
      .cls-1 {
        fill: #2456e6;
      }

      .cls-2 {
        fill: #e846a0;
      }

      .cls-3 {
        fill: #528af8;
      }

      .cls-4 {
        fill: #f69600;
      }

      .cls-5 {
        fill: #3a1573;
      }
    </style>
  </defs>
  <!-- Generator: Adobe Illustrator 28.6.0, SVG Export Plug-In . SVG Version: 1.2.0 Build 709)  -->
  <g>
    <g id="Livello_1">
      <path class="cls-1" d="M372,744h36.3v-148.8h-246.8c30.6,86.7,113.3,148.8,210.5,148.8Z"/>
      <path class="cls-3" d="M0,520.8c0,41.1,33.3,74.4,74.4,74.4h87.1c-8.2-23.3-12.7-48.3-12.7-74.4s4.5-51.1,12.7-74.4h-87.1c-41.1,0-74.4,33.3-74.4,74.4Z"/>
      <path class="cls-4" d="M161.5,446.4h172.4c41.1,0,74.4-33.3,74.4-74.4s-33.3-74.4-74.4-74.4h-172.4c9.8,27.7,24.9,52.9,44.1,74.4-19.2,21.5-34.3,46.7-44.1,74.4Z"/>
      <path class="cls-5" d="M0,223.2c0,41.1,33.3,74.4,74.4,74.4h87.1c-8.2-23.3-12.7-48.3-12.7-74.4s4.5-51.1,12.7-74.4h-87.1c-41.1,0-74.4,33.3-74.4,74.4Z"/>
      <path class="cls-2" d="M372,0c-97.2,0-179.8,62.1-210.5,148.8h246.8V0h-36.3Z"/>
    </g>
  </g>
</svg>